HIERARCHY
ROOT Hips
{
	OFFSET 0.000000 0.000000 0.000000
	CHANNELS 6 Xposition Yposition Zposition Xrotation Yrotation Zrotation
	JOINT LeftUpLeg_virtual
	{
		OFFSET 0.000000 0.000000 0.000000
		CHANNELS 3 Xrotation Yrotation Zrotation
		JOINT LeftUpLeg
		{
			OFFSET 13.026900 -6.336304 -1.092800
			CHANNELS 3 Xrotation Yrotation Zrotation
			JOINT LeftLeg
			{
				OFFSET 0.524474 -46.096886 9.782700
				CHANNELS 3 Xrotation Yrotation Zrotation
				JOINT LeftFoot
				{
					OFFSET -0.524474 -53.427422 -12.948200
					CHANNELS 3 Xrotation Yrotation Zrotation
					JOINT LeftToeBase
					{
						OFFSET 0.192200 -14.009700 16.364100
						CHANNELS 3 Xrotation Yrotation Zrotation
						JOINT LeftToe_End
						{
							OFFSET -1.784700 -0.561700 9.474800
							CHANNELS 3 Xrotation Yrotation Zrotation
							End Site
							{
								OFFSET 0 0 0
							}
						}
					}
				}
			}
		}
	}
	JOINT RightUpLeg_virtual
	{
		OFFSET 0.000000 0.000000 0.000000
		CHANNELS 3 Xrotation Yrotation Zrotation
		JOINT RightUpLeg
		{
			OFFSET -12.883000 -6.336304 -1.092800
			CHANNELS 3 Xrotation Yrotation Zrotation
			JOINT RightLeg
			{
				OFFSET -0.524587 -46.096825 9.782800
				CHANNELS 3 Xrotation Yrotation Zrotation
				JOINT RightFoot
				{
					OFFSET 0.524587 -53.427383 -12.948300
					CHANNELS 3 Xrotation Yrotation Zrotation
					JOINT RightToeBase
					{
						OFFSET -0.192200 -14.009700 16.364100
						CHANNELS 3 Xrotation Yrotation Zrotation
						JOINT RightToe_End
						{
							OFFSET 1.784700 -0.561700 9.474800
							CHANNELS 3 Xrotation Yrotation Zrotation
							End Site
							{
								OFFSET 0 0 0
							}
						}
					}
				}
			}
		}
	}
	JOINT Spine_virtual
	{
		OFFSET 0.000000 0.000000 0.000000
		CHANNELS 3 Xrotation Yrotation Zrotation
		JOINT Spine
		{
			OFFSET 0.072000 7.257294 -0.789700
			CHANNELS 3 Xrotation Yrotation Zrotation
			JOINT Spine1
			{
				OFFSET 0.000000 12.508769 -0.658067
				CHANNELS 3 Xrotation Yrotation Zrotation
				JOINT Spine1_split
				{
					OFFSET 0.000000 12.508769 -0.658067
					CHANNELS 3 Xrotation Yrotation Zrotation
					JOINT Spine2
					{
						OFFSET 0.000000 12.508769 -0.658067
						CHANNELS 3 Xrotation Yrotation Zrotation
						JOINT Neck_virtual
						{
							OFFSET 0.000000 0.000000 0.000000
							CHANNELS 3 Xrotation Yrotation Zrotation
							JOINT Neck
							{
								OFFSET 0.000000 14.033295 7.520400
								CHANNELS 3 Xrotation Yrotation Zrotation
								JOINT Head
								{
									OFFSET 0.000000 8.198502 5.703100
									CHANNELS 3 Xrotation Yrotation Zrotation
									JOINT HeadTop_End
									{
										OFFSET 0.000000 17.760803 13.332701
										CHANNELS 3 Xrotation Yrotation Zrotation
										End Site
										{
											OFFSET 0 0 0
										}
									}
								}
							}
						}
						JOINT LeftShoulder_virtual
						{
							OFFSET 0.000000 0.000000 0.000000
							CHANNELS 3 Xrotation Yrotation Zrotation
							JOINT LeftShoulder
							{
								OFFSET 6.292450 5.785301 -0.669000
								CHANNELS 3 Xrotation Yrotation Zrotation
								JOINT LeftShoulder_split
								{
									OFFSET 6.292450 5.785301 -0.669000
									CHANNELS 3 Xrotation Yrotation Zrotation
									JOINT LeftArm
									{
										OFFSET 13.907140 -6.093903 1.965100
										CHANNELS 3 Xrotation Yrotation Zrotation
										JOINT LeftForeArm
										{
											OFFSET 34.140198 0.000000 0.000000
											CHANNELS 3 Xrotation Yrotation Zrotation
											JOINT LeftHand
											{
												OFFSET 40.960209 0.000000 0.000000
												CHANNELS 3 Xrotation Yrotation Zrotation
												End Site
												{
													OFFSET 0 0 0
												}
											}
										}
									}
								}
							}
						}
						JOINT RightShoulder_virtual
						{
							OFFSET 0.000000 0.000000 0.000000
							CHANNELS 3 Xrotation Yrotation Zrotation
							JOINT RightShoulder
							{
								OFFSET -6.292450 5.785301 -0.669000
								CHANNELS 3 Xrotation Yrotation Zrotation
								JOINT RightShoulder_split
								{
									OFFSET -6.292450 5.785301 -0.669000
									CHANNELS 3 Xrotation Yrotation Zrotation
									JOINT RightArm
									{
										OFFSET -13.907140 -6.093903 1.965100
										CHANNELS 3 Xrotation Yrotation Zrotation
										JOINT RightForeArm
										{
											OFFSET -34.140198 0.000000 0.000000
											CHANNELS 3 Xrotation Yrotation Zrotation
											JOINT RightHand
											{
												OFFSET -40.960209 0.000000 0.000000
												CHANNELS 3 Xrotation Yrotation Zrotation
												End Site
												{
													OFFSET 0 0 0
												}
											}
										}
									}
								}
							}
						}
					}
				}
			}
		}
	}
}
MOTION
Frames: 12
Frame Time: 0.03333333
0.947011 116.132858 -0.907316 0.000000 0.000000 0.000000 -4.059162 -6.937848 -2.902940 -17.754834 12.096841 12.832200 22.141329 2.639955 2.477437 -0.264886 0.653986 -6.784410 -2.113851 0.153349 0.019793 0.000000 0.000000 0.000000 -3.845022 -5.312583 -3.077255 -2.490716 -8.968640 -1.825279 7.209330 -7.772117 -3.040735 1.366358 -1.484001 4.437021 -6.103708 0.034982 0.352829 0.000000 0.000000 0.000000 -4.602461 -6.813048 -3.257846 4.052714 0.497611 2.435403 1.138226 0.191478 1.812827 0.959838 0.240894 -0.099964 0.000000 0.000000 0.000000 0.642606 0.436602 1.776343 5.295219 0.361508 0.051245 -4.796270 1.540752 -0.758836 0.000000 0.000000 0.000000 0.436265 0.489519 1.580791 1.509098 -15.982733 -12.867661 -2.583111 -0.150205 -1.411311 9.338440 -20.532858 -67.749268 -1.799838 -1.174719 0.548839 0.000000 0.000000 0.000000 0.735478 0.461805 1.798425 2.123339 12.604717 15.289773 -0.722413 1.945780 -0.639111 12.826837 28.247157 57.522658 0.595235 10.922256 0.883380 0.000000 0.000000 0.000000 
1.097970 116.137817 -0.897234 0.000000 0.000000 0.000000 -4.050422 -7.050513 -2.898021 -17.733294 12.045692 12.831913 22.270626 2.685871 2.438130 -0.343256 0.675223 -6.841452 -2.127347 0.151841 0.012859 0.000000 0.000000 0.000000 -3.815957 -5.372349 -3.060019 -2.476411 -9.085989 -1.832778 7.082560 -7.680267 -3.083178 1.443467 -1.527776 4.399654 -6.012873 0.011571 0.387528 0.000000 0.000000 0.000000 -4.604631 -6.934061 -3.302495 4.082097 0.473599 2.452638 1.135343 0.180735 1.821110 0.937783 0.263841 -0.111769 0.000000 0.000000 0.000000 0.639098 0.438534 1.776363 5.305406 0.376412 0.063989 -4.818220 1.616214 -0.773891 0.000000 0.000000 0.000000 0.462377 0.479685 1.598226 1.500302 -16.043086 -12.864648 -2.565710 -0.240204 -1.448577 9.221657 -20.533550 -67.835888 -1.811638 -1.276049 0.556929 0.000000 0.000000 0.000000 0.737728 0.456805 1.819347 2.091675 12.620602 15.360899 -0.807920 1.941605 -0.626272 12.926227 28.243124 57.428517 0.615266 10.703593 0.924575 0.000000 0.000000 0.000000 
1.220963 116.142998 -0.887949 0.000000 0.000000 0.000000 -4.075435 -7.274368 -2.927877 -17.691686 12.014930 12.915340 22.526708 2.791318 2.364489 -0.518557 0.727038 -6.924176 -2.135256 0.153432 0.000073 0.000000 0.000000 0.000000 -3.831475 -5.497635 -3.077024 -2.521836 -9.223068 -1.842732 7.029581 -7.463568 -3.120769 1.441706 -1.658974 4.343153 -5.920072 -0.005757 0.410520 0.000000 0.000000 0.000000 -4.633723 -7.148030 -3.368084 4.129356 0.453070 2.497063 1.132510 0.166115 1.824671 0.909328 0.283730 -0.124436 0.000000 0.000000 0.000000 0.636707 0.434392 1.773074 5.325843 0.405361 0.071276 -4.867086 1.743155 -0.836207 0.000000 0.000000 0.000000 0.483387 0.467280 1.613999 1.483363 -16.122202 -12.864164 -2.476131 -0.291337 -1.512992 9.136004 -20.435924 -67.926668 -1.796095 -1.371865 0.564008 0.000000 0.000000 0.000000 0.726389 0.447080 1.839688 2.064022 12.700793 15.406171 -0.915196 1.942395 -0.623755 13.088627 28.205719 57.260259 0.580510 10.535740 1.013341 0.000000 0.000000 0.000000 
1.298517 116.145950 -0.885069 0.000000 0.000000 0.000000 -4.132113 -7.570140 -2.982558 -17.627672 12.005217 13.064916 22.835527 2.953220 2.261394 -0.754733 0.801600 -7.023653 -2.128471 0.158219 -0.017493 0.000000 0.000000 0.000000 -3.884714 -5.679805 -3.116253 -2.649585 -9.377078 -1.856061 7.107669 -7.125106 -3.135260 1.431521 -1.855933 4.320436 -5.880007 -0.019064 0.417830 0.000000 0.000000 0.000000 -4.681669 -7.435633 -3.449111 4.189552 0.439718 2.562310 1.131995 0.152140 1.824185 0.894878 0.282529 -0.107212 0.000000 0.000000 0.000000 0.632818 0.427311 1.767106 5.348532 0.442670 0.075543 -4.939153 1.897554 -0.926182 0.000000 0.000000 0.000000 0.500855 0.454958 1.626502 1.454839 -16.214087 -12.866061 -2.362616 -0.255046 -1.593665 9.092947 -20.217980 -67.989971 -1.765651 -1.414632 0.570445 0.000000 0.000000 0.000000 0.710531 0.434591 1.855736 2.040507 12.835748 15.410879 -1.013282 1.934186 -0.622153 13.303965 28.193132 57.042523 0.513810 10.430145 1.118543 0.000000 0.000000 0.000000 
1.347728 116.128662 -0.893702 0.000000 0.000000 0.000000 -4.208788 -7.900822 -3.058733 -17.534574 12.009522 13.261110 23.135999 3.162372 2.136408 -1.005050 0.881514 -7.139151 -2.110983 0.163746 -0.035694 0.000000 0.000000 0.000000 -3.965634 -5.915865 -3.174605 -2.857993 -9.544694 -1.864236 7.317253 -6.673030 -3.135373 1.433348 -2.109300 4.356767 -5.954966 -0.031205 0.403386 0.000000 0.000000 0.000000 -4.743799 -7.780630 -3.540792 4.254417 0.437780 2.642448 1.136498 0.143111 1.821542 0.902312 0.251939 -0.076966 0.000000 0.000000 0.000000 0.628477 0.422072 1.757964 5.368022 0.483400 0.081459 -5.023560 2.051752 -1.015156 0.000000 0.000000 0.000000 0.520533 0.446138 1.635773 1.419122 -16.309901 -12.854709 -2.236857 -0.135823 -1.681370 9.064836 -19.910297 -68.009300 -1.734958 -1.398938 0.570779 0.000000 0.000000 0.000000 0.700236 0.424388 1.864834 2.021064 13.011293 15.357894 -1.109659 1.902233 -0.610752 13.569769 28.267539 56.787460 0.446328 10.395353 1.209400 0.000000 0.000000 0.000000 
1.390656 116.089020 -0.910833 0.000000 0.000000 0.000000 -4.293542 -8.238014 -3.149226 -17.410512 12.014803 13.482209 23.403150 3.400915 2.002467 -1.214670 0.943933 -7.273056 -2.102155 0.169080 -0.048162 0.000000 0.000000 0.000000 -4.057170 -6.182628 -3.246140 -3.115603 -9.716658 -1.855966 7.654850 -6.139180 -3.135859 1.408817 -2.426759 4.411145 -6.095383 -0.044341 0.373241 0.000000 0.000000 0.000000 -4.815364 -8.153931 -3.638668 4.315305 0.448149 2.732055 1.148610 0.143200 1.819897 0.918611 0.179370 -0.040247 0.000000 0.000000 0.000000 0.626719 0.422938 1.747332 5.388615 0.523121 0.089234 -5.102191 2.165223 -1.082389 0.000000 0.000000 0.000000 0.547448 0.442858 1.642524 1.381617 -16.397799 -12.819426 -2.129720 0.030368 -1.792988 9.036543 -19.550351 -67.985948 -1.712174 -1.327967 0.564277 0.000000 0.000000 0.000000 0.698849 0.419688 1.868023 2.003676 13.212766 15.245100 -1.195078 1.857171 -0.581463 13.855892 28.445598 56.541327 0.402428 10.426596 1.258221 0.000000 0.000000 0.000000 
1.436726 116.047333 -0.922716 0.000000 0.000000 0.000000 -4.383255 -8.589523 -3.243518 -17.250215 12.008883 13.714380 23.637215 3.653980 1.874014 -1.351586 0.975313 -7.417960 -2.100432 0.172579 -0.053699 0.000000 0.000000 0.000000 -4.149897 -6.492524 -3.324351 -3.414391 -9.892351 -1.823436 8.103590 -5.571342 -3.140821 1.334592 -2.819677 4.409837 -6.177285 -0.057998 0.342186 0.000000 0.000000 0.000000 -4.894923 -8.547717 -3.739481 4.363932 0.465795 2.822289 1.166241 0.152198 1.821723 0.927692 0.078398 -0.022968 0.000000 0.000000 0.000000 0.627797 0.431171 1.736203 5.421855 0.557914 0.100435 -5.166607 2.210406 -1.123411 0.000000 0.000000 0.000000 0.585420 0.444724 1.647585 1.354984 -16.468868 -12.743895 -2.062300 0.230560 -1.899876 8.991800 -19.166513 -67.949570 -1.697050 -1.212763 0.550692 0.000000 0.000000 0.000000 0.713222 0.422910 1.871283 1.995865 13.424396 15.090244 -1.286573 1.806898 -0.532025 14.101385 28.669859 56.329280 0.381759 10.563943 1.256470 0.000000 0.000000 0.000000 
1.489277 116.008041 -0.924284 0.000000 0.000000 0.000000 -4.467807 -8.974063 -3.332890 -17.050722 11.980409 13.944842 23.833341 3.922888 1.759721 -1.435474 0.978667 -7.551925 -2.091754 0.171878 -0.051695 0.000000 0.000000 0.000000 -4.242058 -6.831530 -3.400122 -3.756474 -10.069584 -1.774326 8.629818 -4.990559 -3.153783 1.228168 -3.277899 4.330457 -6.137061 -0.071346 0.324371 0.000000 0.000000 0.000000 -4.981397 -8.955599 -3.837756 4.392557 0.486262 2.903414 1.182609 0.168924 1.829734 0.938994 -0.006277 -0.036932 0.000000 0.000000 0.000000 0.629449 0.444270 1.730511 5.478577 0.583055 0.111554 -5.210443 2.176518 -1.150775 0.000000 0.000000 0.000000 0.631405 0.450306 1.653238 1.347701 -16.514426 -12.618792 -2.012564 0.412232 -1.965774 8.921303 -18.794502 -67.945772 -1.675592 -1.089305 0.528781 0.000000 0.000000 0.000000 0.746590 0.434719 1.880396 1.995512 13.635079 14.918289 -1.377045 1.741730 -0.450204 14.153507 28.832650 56.203769 0.373727 10.870891 1.209434 0.000000 0.000000 0.000000 
1.542113 115.965164 -0.911467 0.000000 0.000000 0.000000 -4.545560 -9.385548 -3.408880 -16.804091 11.923462 14.154948 23.973143 4.211453 1.664648 -1.518581 0.976266 -7.650951 -2.074849 0.164992 -0.042323 0.000000 0.000000 0.000000 -4.325537 -7.196161 -3.460487 -4.140535 -10.229246 -1.723352 9.204685 -4.392439 -3.166882 1.151201 -3.757110 4.216118 -6.013591 -0.084007 0.324952 0.000000 0.000000 0.000000 -5.077698 -9.373479 -3.929704 4.396440 0.503550 2.970441 1.188699 0.188190 1.845189 0.951289 -0.050504 -0.058310 0.000000 0.000000 0.000000 0.631098 0.459750 1.734498 5.568973 0.597333 0.117950 -5.208363 2.063548 -1.195925 0.000000 0.000000 0.000000 0.672528 0.457105 1.661561 1.360960 -16.527070 -12.454265 -1.991250 0.541056 -1.998574 8.843696 -18.433543 -67.999430 -1.637691 -0.977882 0.501539 0.000000 0.000000 0.000000 0.785317 0.451597 1.899444 1.996742 13.845617 14.759226 -1.458216 1.654272 -0.344970 13.896250 28.804824 56.192315 0.351261 11.407498 1.132986 0.000000 0.000000 0.000000 
1.587465 115.920876 -0.899332 0.000000 0.000000 0.000000 -4.624736 -9.821196 -3.470658 -16.486352 11.853056 14.327160 24.038091 4.514937 1.584641 -1.640701 0.991040 -7.712806 -2.058520 0.152365 -0.028380 0.000000 0.000000 0.000000 -4.403393 -7.589484 -3.504975 -4.545952 -10.352126 -1.680864 9.777668 -3.768047 -3.185017 1.145272 -4.220029 4.117264 -5.894273 -0.094812 0.340689 0.000000 0.000000 0.000000 -5.180650 -9.807850 -4.010825 4.373133 0.514764 3.023732 1.177938 0.203903 1.868967 0.948488 -0.056857 -0.075588 0.000000 0.000000 0.000000 0.625043 0.474430 1.749093 5.710859 0.596551 0.117245 -5.114616 1.881656 -1.301825 0.000000 0.000000 0.000000 0.696189 0.462674 1.674744 1.397361 -16.507312 -12.254013 -1.989008 0.594954 -2.016887 8.774787 -18.068434 -68.110810 -1.582865 -0.882691 0.468332 0.000000 0.000000 0.000000 0.813099 0.469201 1.928696 1.994667 14.054613 14.633677 -1.538002 1.500979 -0.215098 13.265694 28.535677 56.251669 0.294969 12.176248 1.056305 0.000000 0.000000 0.000000 
1.623109 115.873093 -0.882196 0.000000 0.000000 0.000000 -4.709759 -10.272307 -3.523988 -16.094934 11.800381 14.456317 24.025438 4.819089 1.514719 -1.802899 1.036563 -7.756166 -2.058162 0.135702 -0.012303 0.000000 0.000000 0.000000 -4.475659 -7.997984 -3.538399 -4.953075 -10.431622 -1.649089 10.313772 -3.132735 -3.210979 1.201658 -4.650542 4.049934 -5.816057 -0.102884 0.366984 0.000000 0.000000 0.000000 -5.290668 -10.244783 -4.082431 4.331814 0.518916 3.068580 1.148415 0.212655 1.900524 0.941245 -0.050967 -0.077986 0.000000 0.000000 0.000000 0.604074 0.485633 1.773018 5.912145 0.579185 0.102695 -4.861744 1.624956 -1.511591 0.000000 0.000000 0.000000 0.694181 0.465990 1.694294 1.451174 -16.463713 -12.033916 -2.005202 0.596207 -2.043593 8.738528 -17.681932 -68.247974 -1.522230 -0.789113 0.419632 0.000000 0.000000 0.000000 0.817218 0.483252 1.963525 1.987407 14.274492 14.549934 -1.618674 1.303443 -0.107296 12.270429 28.044332 56.320760 0.198019 13.138572 0.991513 0.000000 0.000000 0.000000 
1.646805 115.825302 -0.870523 0.000000 0.000000 0.000000 -4.806829 -10.737932 -3.570638 -15.658504 11.786444 14.548755 23.952165 5.113501 1.452610 -1.981976 1.115664 -7.790003 -2.079023 0.115743 0.003920 0.000000 0.000000 0.000000 -4.544791 -8.417511 -3.564216 -5.345944 -10.471255 -1.629360 10.808172 -2.505780 -3.248016 1.279340 -5.051544 3.996566 -5.765410 -0.108150 0.398697 0.000000 0.000000 0.000000 -5.413676 -10.676538 -4.145863 4.285300 0.510272 3.110582 1.098582 0.213082 1.937633 0.905846 -0.046035 -0.069847 0.000000 0.000000 0.000000 0.562905 0.493494 1.804575 6.178269 0.539279 0.065240 -4.379026 1.274118 -1.854790 0.000000 0.000000 0.000000 0.668076 0.466724 1.717990 1.514888 -16.412361 -11.818124 -2.043602 0.557439 -2.068900 8.751314 -17.260566 -68.366369 -1.470346 -0.682120 0.346715 0.000000 0.000000 0.000000 0.794822 0.492732 2.000906 1.975835 14.530647 14.515921 -1.702866 1.094397 -0.042645 10.992376 27.445010 56.307496 0.068307 14.283780 0.954471 0.000000 0.000000 0.000000 
